<svg width="54" height="54" viewBox="0 0 54 54" fill="none" xmlns="http://www.w3.org/2000/svg">
<path d="M49.5316 26.9417C49.4911 14.5397 39.4223 4.50024 27.0181 4.50024C14.6093 4.50024 4.54281 14.5397 4.50231 26.9417L4.50006 26.8832V27.1352L4.50231 27.0835C4.54056 39.4877 14.6071 49.5317 27.0181 49.5317C39.4246 49.5317 49.4911 39.4922 49.5316 27.0902L49.5338 27.1487V27.0272V27.016V26.8832L49.5316 26.9417ZM20.8823 37.2535C15.2371 37.2535 10.6493 32.6657 10.6493 27.0182C10.6493 21.3707 15.2371 16.783 20.8823 16.783C23.6498 16.783 25.9628 17.7977 27.7358 19.456L24.8221 22.2797C24.0908 21.5845 22.7993 20.7655 20.8823 20.7655C17.4961 20.7655 14.7331 23.5802 14.7331 27.0317C14.7331 30.481 17.4983 33.2957 20.8823 33.2957C24.8018 33.2957 26.2463 30.5822 26.5118 28.9757H20.8778V25.1552H30.4516C30.6001 25.7987 30.7103 26.4017 30.7103 27.2522C30.7103 33.0955 26.7908 37.2535 20.8823 37.2535ZM44.4128 28.0397H40.3201V32.1325H37.2511V28.0397H33.1561V24.9707H37.2511V20.8757H40.3201V24.9707H44.4128V28.0397Z" fill="white"/>
</svg>
