<svg width="51" height="51" viewBox="0 0 51 51" fill="none" xmlns="http://www.w3.org/2000/svg">
<path d="M25.5 3.1875C13.1783 3.1875 3.1875 13.1783 3.1875 25.5C3.1875 37.8217 13.1783 47.8125 25.5 47.8125C37.8217 47.8125 47.8125 37.8217 47.8125 25.5C47.8125 13.1783 37.8217 3.1875 25.5 3.1875ZM36.2229 20.0065C36.2379 20.2406 36.2379 20.4847 36.2379 20.7237C36.2379 28.0351 30.6697 36.457 20.4946 36.457C17.3569 36.457 14.4483 35.5456 11.9979 33.9768C12.4462 34.0266 12.8745 34.0465 13.3327 34.0465C15.9226 34.0465 18.3032 33.1699 20.2008 31.6857C17.7703 31.6359 15.7283 30.0422 15.0311 27.8508C15.8827 27.9753 16.6497 27.9753 17.5263 27.7512C16.2748 27.4969 15.15 26.8172 14.3428 25.8276C13.5357 24.838 13.0961 23.5995 13.0986 22.3225V22.2527C13.8308 22.6661 14.6924 22.9201 15.5938 22.955C14.836 22.4499 14.2145 21.7657 13.7845 20.9629C13.3545 20.1602 13.1291 19.2637 13.1285 18.353C13.1285 17.3221 13.3975 16.3808 13.8806 15.564C15.2696 17.2739 17.003 18.6725 18.9679 19.6687C20.9329 20.6649 23.0855 21.2365 25.2858 21.3463C24.5039 17.586 27.3129 14.543 30.6896 14.543C32.2834 14.543 33.7178 15.2104 34.7288 16.2861C35.9789 16.0521 37.1742 15.5839 38.24 14.9563C37.8267 16.2363 36.9601 17.3171 35.8096 17.9994C36.9252 17.8799 38.001 17.5711 38.9971 17.1378C38.245 18.2435 37.3037 19.2246 36.2229 20.0065Z" fill="white"/>
</svg>
